# xmcd
#
# Track frame offsets:
# 150
# 11150
# 23549
# 33934
# 40952
# 46940
# 56052
# 66200
# 72357
# 83364
# 94441
#
# Disc length: 1390 seconds
#
#
# Revision: 0
# Processed by: cddbd v1.5.2PL0 Copyright (c) Steve Scherf et al.
# Submitted via: FreeRIP 2.945 
#
DISCID=89056c0b
DTITLE=Johnny Cash - The Rough Cut King of Country Music
DYEAR=1900
DGENRE=Country
TTITLE0=Cold, Cold Heart
TTITLE1=Goodnight Irene
TTITLE2=Straight A's In Love
TTITLE3=You're My Baby
TTITLE4=My Treasure
TTITLE5=I Forgot To Remember To Forget
TTITLE6=Born To Lose
TTITLE7=You Tell Me
TTITLE8=Fools Hall Of Fame
TTITLE9=I Just Thought You'd like To Know
TTITLE10=Story Of A Broken Heart
EXTD=
EXTT0=
EXTT1=
EXTT2=
EXTT3=
EXTT4=
EXTT5=
EXTT6=
EXTT7=
EXTT8=
EXTT9=
EXTT10=
PLAYORDER=
